<svg viewBox="0 0 1024 1024" version="1.1" xmlns="http://www.w3.org/2000/svg" p-id="13356"><path d="M366.08 64c-80.384 1.536-160.256 3.584-240.64 5.12-8.704 0.512-36.864 3.584-61.44 25.6-21.504 19.456-28.672 42.496-30.72 51.2v588.8h332.8v-670.72z" fill="#CCFF99" p-id="13357"></path><path d="M514.56 734.72v261.12c122.88-1.536 245.76-3.584 368.64-5.12 12.288-2.048 43.52-9.216 71.68-35.84 31.232-29.696 38.912-65.024 40.96-76.8v-143.36h-481.28z" fill="#66CCFF" p-id="13358"></path><path d="M145.408 500.736C218.112 562.688 290.816 624.128 363.52 686.08c15.36 52.736 30.72 105.984 46.08 158.72 28.672-26.624 57.856-53.76 86.528-80.384 77.312 47.104 154.624 94.208 232.448 141.312C777.728 632.832 826.368 359.936 875.52 87.04 632.32 224.768 388.608 363.008 145.408 500.736z" fill="#0099FF" p-id="13359"></path><path d="M363.52 686.08c15.36 52.736 30.72 105.984 46.08 158.72 29.184-27.136 57.856-54.784 87.04-81.92l307.2-568.32c-146.944 163.84-293.376 327.68-440.32 491.52z" fill="#0066FF" p-id="13360"></path></svg>