<svg viewBox="0 0 1024 1024" version="1.1" xmlns="http://www.w3.org/2000/svg" p-id="7586"><path d="M745.156153 284.875474a55.398362 55.398362 0 0 0 0-78.498742L665.193303 126.388855l0.112624 0.112624q-31.759892-31.759892-109.0448-108.869608a62.456116 62.456116 0 0 0-87.521154 0.575632L18.182476 468.389588a61.617695 61.617695 0 0 0 0 87.40853l450.494928 450.094489a61.943053 61.943053 0 0 0 87.521154 0L745.043529 817.147745a55.536014 55.536014 0 0 0-78.598851-78.486227L523.437566 881.86885a14.778736 14.778736 0 0 1-21.173262 0L142.443994 522.386411a14.766223 14.766223 0 0 1 0-21.160748l359.707686-359.482439c0.450495-0.463009 1.026127-0.80088 1.489136-1.251375a14.628571 14.628571 0 0 1 19.684126 1.251375l143.23236 143.13225a55.5235 55.5235 0 0 0 78.598851 0z" fill="#256FF6" p-id="7587"></path><path d="M390.741782 514.853135a124.361628 124.361628 0 1 0 124.361628-124.023757 124.198949 124.198949 0 0 0-124.361628 124.023757zM1006.518294 472.731859L865.951363 332.865697a55.573555 55.573555 0 1 0-78.598852 78.586338L882.219235 506.25619a14.803764 14.803764 0 0 1 0 21.173261l-93.590321 93.465184a55.536014 55.536014 0 0 0 78.598851 78.486228l139.403153-139.240474a61.692778 61.692778 0 0 0-0.112624-87.40853z" fill="#E55258" p-id="7588"></path></svg>