<svg viewBox="0 0 1024 1024" version="1.1" xmlns="http://www.w3.org/2000/svg" p-id="15189"><path d="M184.318 0h655.354q184.318 0 184.318 184.318v655.354q0 184.318-184.318 184.318H184.318Q0 1023.99 0 839.672V184.318Q0 0 184.318 0z" fill="#FFFFFF" p-id="15190"></path><path d="M475.357 749.1a40.96 40.96 0 0 1 73.266 0L656.439 964.71a40.96 40.96 0 0 1-36.638 59.279H404.189a40.96 40.96 0 0 1-36.638-59.279z" fill="#B4CDE6" p-id="15191"></path><path d="M116.325 833.046h251.461L231.248 1023.99h-46.93A185.27 185.27 0 0 1 6.144 886.96z" fill="#C9E4FF" p-id="15192"></path><path d="M338.664 717.161H452.01l-73.287 99.174H150.926zM0 853.086l283.645-136.539H0z" fill="#EEEEEE" p-id="15193"></path><path d="M907.654 833.046h-251.43l136.518 190.944h46.93a185.27 185.27 0 0 0 178.174-137.03z" fill="#CBFFCB" p-id="15194"></path><path d="M685.346 717.161H572.001l73.328 99.174h227.755zM1024.02 853.086L740.375 716.547h283.645z" fill="#EEEEEE" p-id="15195"></path><path d="M481.275 757.752a30.72 20.48 0 1 0 61.44 0 30.72 20.48 0 1 0-61.44 0z" fill="#ADBDCE" p-id="15196"></path><path d="M511.104 135.648a226.046 226.046 0 0 1 226.169 225.278c0 174.078-218.11 232.988-218.11 390.682a7.27 7.27 0 1 1-14.336 0c0-157.694-218.11-216.604-218.11-390.682a224.52 224.52 0 0 1 224.387-225.278z" fill="#E3423A" p-id="15197"></path><path d="M465.915 255.997h35.84v215.038h-35.84zM522.235 337.917h122.879v133.118h-81.92a40.96 40.96 0 0 1-40.96-40.96v-92.158z" fill="#FFFFFF" p-id="15198"></path><path d="M440.316 373.756a25.6 25.6 0 0 0-25.6 25.6v10.24a25.6 25.6 0 0 0 25.6 25.6h25.6v-61.44h-25.6m0-35.84h61.439v133.12h-61.44a61.44 61.44 0 0 1-61.439-61.44v-10.24a61.44 61.44 0 0 1 61.44-61.44z" fill="#FFFFFF" p-id="15199"></path><path d="M558.074 327.677h51.2v107.519h-46.08a5.12 5.12 0 0 1-5.12-5.12v-102.4z" fill="#E34040" p-id="15200"></path><path d="M389.116 962.55h122.879v61.44H389.116a30.72 30.72 0 0 1-30.72-30.72 30.72 30.72 0 0 1 30.72-30.72z" fill="#DB3A42" p-id="15201"></path><path d="M511.995 962.55h122.879a30.72 30.72 0 0 1 30.72 30.72 30.72 30.72 0 0 1-30.72 30.72h-122.88v-61.44z" fill="#407CEC" p-id="15202"></path></svg>