<svg viewBox="0 0 1024 1024" version="1.1" xmlns="http://www.w3.org/2000/svg" p-id="5752"><path d="M512 0C229.236364 0 0 229.236364 0 512s229.236364 512 512 512 512-229.236364 512-512S794.763636 0 512 0z m352.395636 750.545455c-0.791273-0.930909-1.861818-1.629091-2.234181-2.653091-24.529455-65.629091-57.716364-74.612364-109.381819-29.463273-106.728727 93.277091-255.953455 109.614545-379.904 41.565091-130.327273-71.493818-199.074909-230.167273-156.253091-360.820364 46.545455-141.917091 205.265455-214.900364 340.805819-156.718545 139.357091 59.810909 197.352727 222.301091 126.929454 355.560727-4.328727 8.145455-9.681455 15.778909-13.358545 24.203636-12.706909 29.090909-1.675636 60.416 25.367272 73.541819a55.854545 55.854545 0 0 0 73.541819-25.367273c13.358545-27.554909 2.932364-57.949091-25.506909-73.169455-5.957818-3.211636-12.613818-5.026909-21.504-8.517818 45.754182-30.254545 91.927273-13.684364 100.026181 34.304 2.420364 14.522182 5.026909 20.433455 19.968 25.553455 46.126545 15.825455 55.156364 62.184727 21.504 101.934545z" fill="#A9314D" p-id="5753"></path></svg>