<svg viewBox="0 0 1024 1024" version="1.1" xmlns="http://www.w3.org/2000/svg"><path d="M646.646154 829.070254l27.134016-46.236619s-61.595496 25.214156-164.691957 25.214157c-103.160456 0-163.82802-24.222229-163.82802-24.222229l30.333782 50.46031 10.751214 159.092366c0 17.182744 56.059901 30.621761 125.270839 30.621761 69.242937 0 125.334835-13.40702 125.334835-30.621761l9.759286-163.604036v-0.671951z m26.238081-300.586019c-32.797602 1.951857-49.180404 38.525183-65.659198 77.018368-6.111553 14.07897-26.878035 74.106581-40.445043 66.683123-13.567008-7.391459 17.630711-56.699854 26.39807-86.041708-10.111261 7.423457-47.132553 36.221351-56.699854 9.183329-15.262884 13.40702-48.156479 20.478503-44.44475-14.046973-8.159403 14.718924-26.494063 35.101433-48.604446 26.206084-28.701901-10.879204 16.862767-102.872477 28.157941-98.424803 11.359169 5.151623-2.271834 25.598128-5.791576 33.885522-7.93542 17.886692-16.990758 40.861012-10.879205 45.340684 10.239251 8.287394 38.557181-29.981808 39.197134-30.685756 5.279614-7.039485 20.446505-52.444165 32.54162-47.228546 12.159111 5.727581-30.333782 65.755192-14.49494 77.914302 3.231764 2.559813 16.350804-1.279906 24.286224-10.207253 5.119626-5.119626 3.327757-17.91869 20.446505-58.779702 17.246739-40.925007 32.605616-91.993273 44.31676-88.153554s2.079848 29.981808-2.175841 40.221059c-19.806552 45.980638-54.108043 121.335127-37.981223 115.607546 15.966832-5.759579 24.286224-5.759579 40.221059-24.286224s14.718924-49.148406 25.56613-48.508453c10.239251 0.607956 8.959345 10.847207 6.399532 17.822697 10.239251-11.519158 49.148406-37.021293 58.139749-12.127113 10.847207 29.341854-55.643931 72.186721-39.005148 69.626909 15.99883-1.91986 42.140918-18.526645 53.660076-33.821527l30.685756-277.323721s-31.325709 25.598128-228.719275 25.598128-225.423516-24.926177-225.423515-24.926177l26.142088 253.005499c14.07897-39.581106 47.260544-120.055221 99.064756-116.887453 23.646271 1.279906 55.579936 47.324539 28.061948 48.604446-11.519158 0.639953-12.799064-23.006318-26.206084-26.206084-10.207254-1.951857-23.646271 5.759579-32.54162 14.718924-17.246739 17.246739-55.643931 85.593741-50.524306 119.511261 6.399532 43.420825 60.02761-14.750921 68.986956-31.99766 6.367534-12.063118 10.847207-48.54045 24.222228-44.700732 14.07897 3.839719-1.247909 41.564961-11.519157 74.106581-11.519158 37.085288-17.246739 75.994443-31.229717 71.514771-14.07897-4.447675 8.927347-52.348172 7.583446-60.667564-13.343024 12.767066-37.661246 43.516818-69.594911 28.125943l15.966832 157.81246s43.48482 33.821527 173.779293 33.821527 175.699152-33.821527 175.699152-33.821527l20.446505-182.738637c-16.606786 16.638783-68.986955 45.340684-72.186722 12.799064-2.527815-26.206084 56.859842-63.899327 41.564961-64.603276l2.559813-2.943784z m67.195087-499.899445l-113.431706 119.447265-20.734483 81.114069c80.250132 5.119626 136.054051 16.478795 136.054051 29.597835 0 17.886692-103.000468 32.285639-229.999182 32.285639s-229.967184-14.622931-229.967183-32.54162c0-17.886692 103.000468-32.605616 229.999181-32.605616 18.04668 0 35.997368 0 53.916057 0.671951l23.93425-97.112898L710.385493 1.674758c2.911787-3.839719 11.935127-0.639953 20.222521 6.399532 8.287394 6.367534 12.767066 14.686926 10.207254 18.526645v1.279906l-0.735946 0.671951z m-163.572039 247.24592s-22.302369 0-26.014098-3.42375a5.983562 5.983562 0 0 1-1.535888-3.839719c0-2.46382 1.663878-3.871717 3.83972-4.703656l1.887862 3.199766c-0.895934 0.255981-1.247909 0.639953-1.407897 0.991927 0 1.759871 13.40702 2.943785 23.678268 2.815795 10.207254-0.127991 22.654343-0.991927 22.750337-2.719802 0-0.511963-0.991927-0.991927-2.591811-1.407897l1.91986-3.071775c2.687803 0.863937 4.991635 2.46382 4.991635 5.151623 0 4.703656-6.01556 5.4716-9.823282 6.01556-4.575665 0.639953-17.566715 0.991927-17.566715 0.991928h-0.095993z" fill="#DA4648" p-id="12362"></path></svg>