<svg viewBox="0 0 1024 1024" version="1.1" xmlns="http://www.w3.org/2000/svg"><path d="M387.68 161.412c16.024 21.384 27.292 39.74 39.576 63.92l2.648 5.28 2.696 5.472 1.364 2.816 2.784 5.804 2.86 6.052 1.992 4.284h225.92a16 16 0 0 1 16 16v34.56a16 16 0 0 1-16 16h-80.64c-30.72 96-75.52 176-134.4 240.64 55.528 44.204 122.404 82.052 200.252 114.308l48.652-127.24a32 32 0 0 1 29.888-20.572h32.56a32 32 0 0 1 29.888 20.572l141.08 368.976a16 16 0 0 1-14.944 21.716h-37.54a16 16 0 0 1-15.04-10.54l-33.612-92.564H661.44l-33.612 92.564a16 16 0 0 1-15.04 10.54h-37.54a16 16 0 0 1-14.944-21.716l68.66-179.568c-88.476-36.064-163.088-79.32-223.844-129.756-70.624 62.428-140.6 104.252-242.924 133.76l-9.808 2.64a16 16 0 0 1-17.828-7.132l-18.524-30.432a16 16 0 0 1 9.316-23.72l0.936-0.264c92.292-26.32 169.62-65.396 231.472-117.732-68.104-69.364-115.704-149.292-142.8-240.392l-1.2-4.088H132.48a16 16 0 0 1-16-16v-34.56a16 16 0 0 1 16-16h237.44l-2.728-5-2.632-4.772-1.292-2.308-2.536-4.484c-0.416-0.736-0.836-1.46-1.252-2.184l-2.488-4.252c-9.104-15.372-18.156-28.34-32.2-44.812l-1.952-2.268a11.884 11.884 0 0 1 4.792-19.124l33.848-12.252a22.972 22.972 0 0 1 26.2 7.828z m361.312 439.9h-2.304L681.6 781.6h131.904l-64.512-180.288zM517.76 321.6h-240c26.24 75.52 68.48 141.44 127.36 199.04 49.028-54.056 86.328-119.228 111.292-194.9l1.348-4.14z" p-id="11216"></path></svg>