<svg xmlns="http://www.w3.org/2000/svg" viewBox="0 0 1024 1024" p-id="2212" version="1.1"><path stroke="null" id="svg_1" p-id="2213" fill="#00E676" d="m573.5148,853.29773l378.8405,0c12.13503,0 23.70123,-4.26622 34.12977,-10.23893a71.76733,71.76733 0 0 0 27.30381,-23.89084a68.82838,68.82838 0 0 0 10.23893,-34.12977c0,-11.94542 -4.17141,-23.70123 -10.23893,-34.12977l-255.97331,-440.27409a62.28683,62.28683 0 0 0 -23.89084,-23.89084a82.48029,82.48029 0 0 0 -37.54276,-10.23893c-12.04022,0 -23.70123,4.26622 -34.12977,10.23893a62.28683,62.28683 0 0 0 -23.89084,23.89084l-64.84657,112.62826l-129.69314,-218.43056c-6.06753,-10.42854 -13.46231,-21.33111 -23.89085,-27.30382c-10.42854,-5.97271 -21.99474,-6.82595 -34.12977,-6.82595s-23.70123,0.85324 -34.12977,6.82595a80.96341,80.96341 0 0 0 -27.30382,27.30382l-317.4069,546.07639a65.79462,65.79462 0 0 0 -6.82595,34.12977c0,11.94542 0.75843,23.70123 6.82595,34.12977a71.76733,71.76733 0 0 0 27.30382,23.89084a69.39721,69.39721 0 0 0 34.12977,10.23893l238.90843,0c94.71012,0 163.5385,-42.47261 211.6046,-122.86718l116.04123,-201.36567l61.43358,-105.8023l187.71376,320.81988l-249.14735,0l-61.4336,109.21527zm-269.62522,-109.21527l-167.23589,0l249.14735,-430.03516l126.28017,215.01759l-83.61795,145.80998c-31.94926,52.14271 -68.25954,69.2076 -124.57368,69.2076z" /></svg>