<svg viewBox="0 0 1024 1024" version="1.1" xmlns="http://www.w3.org/2000/svg" p-id="23162">
    <path d="M36.21376 535.15776c0 83.9168 21.82144 162.73408 60.09856 231.09632l46.57152-44.52864c-28.52864-56.00256-44.61056-119.40864-44.61056-186.56768 0-227.3536 184.30464-411.65824 411.65824-411.65824s411.65824 184.30464 411.65824 411.65824c0 64.7168-14.93504 125.94688-41.54368 180.4288l45.2608 47.49824c37.18656-67.61984 58.3424-145.3056 58.3424-227.92704 0-261.632-212.09088-473.71776-473.71776-473.71776S36.21376 273.53088 36.21376 535.15776z"  fill="#5e52a0" p-id="23163"/>
    <path d="M166.53824 535.15776c0 46.50496 9.1904 90.86464 25.856 131.36384l36.98176-36.98688a297.58464 297.58464 0 0 1-15.2576-94.37696c0-164.51584 133.36576-297.8816 297.8816-297.8816 164.51584 0 297.8816 133.36576 297.8816 297.8816a297.5232 297.5232 0 0 1-16.3072 97.46432l36.81792 36.81792c17.4336-41.28256 27.06944-86.656 27.06944-134.28224 0-190.79168-154.67008-345.46176-345.46176-345.46176-190.79168 0-345.46176 154.67008-345.46176 345.46176z"  fill="#5e52a0" p-id="23163"/>
    <path d="M278.73792 584.1664a239.02208 239.02208 0 0 1-4.62848-46.94016c0-131.38432 106.50624-237.89568 237.89056-237.89568s237.89056 106.51136 237.89056 237.89568c0 16.11264-1.59744 31.8464-4.65408 47.05792l-29.2096-29.2096c0.50688-5.88288 0.768-11.83744 0.768-17.84832 0-113.10592-91.68896-204.8-204.79488-204.8-113.1008 0-204.79488 91.69408-204.79488 204.8 0 5.96992 0.256 11.8784 0.75776 17.72032l-29.22496 29.21984z"  fill="#5e52a0" p-id="23163"/>
    <path d="M96.37888 913.7152H0l494.96064-500.82816 0.49152 0.4864v96.5376L96.37888 913.7152z"  fill="#dba853" p-id="23163"/>
    <path d="M236.30848 901.30432H165.8624l313.0368-316.7488v71.27552l-242.59072 245.47328z"  fill="#dba853" p-id="23163"/>
    <path d="M355.59424 886.82496h-42.3936l149.15072-150.91712v42.89536l-106.752 108.02176z"  fill="#dba853" p-id="23163"/>
    <path d="M927.62112 913.7152H1024l-494.96064-500.82816-0.49152 0.4864v96.5376l399.07328 403.80416z"  fill="#dba853" p-id="23163"/>
    <path d="M787.69152 901.30432h70.44608l-313.04192-316.7488v71.27552l242.59584 245.47328z"  fill="#dba853" p-id="23163"/>
    <path d="M668.40576 886.82496h42.38848l-149.1456-150.91712v42.89536l106.75712 108.02176z"  fill="#dba853" p-id="23163"/>
</svg>
