<svg viewBox="0 0 1024 1024" xmlns="http://www.w3.org/2000/svg" width="24" height="24">
    <path d="M207.026087 291.617391l133.565217 0 0 53.426087-133.565217 0 0-53.426087Z" />
    <path d="M420.730435 291.617391l133.565217 0 0 53.426087-133.565217 0 0-53.426087Z" />
    <path d="M701.217391 445.217391l53.426087 0 0 126.886957-53.426087 0 0-126.886957Z" />
    <path d="M801.391304 445.217391l53.426087 0 0 126.886957-53.426087 0 0-126.886957Z" />
    <path d="M801.391304 625.530435l53.426087 0 0 129.113043-53.426087 0 0-129.113043Z" />
    <path d="M701.217391 625.530435l53.426087 0 0 129.113043-53.426087 0 0-129.113043Z" />
    <path d="M420.730435 420.730435l133.565217 0 0 53.426087-133.565217 0 0-53.426087Z" />
    <path d="M420.730435 549.843478l133.565217 0 0 53.426087-133.565217 0 0-53.426087Z" />
    <path d="M207.026087 549.843478l133.565217 0 0 53.426087-133.565217 0 0-53.426087Z" />
    <path d="M207.026087 674.504348l133.565217 0 0 53.426087-133.565217 0 0-53.426087Z" />
    <path d="M420.730435 674.504348l133.565217 0 0 53.426087-133.565217 0 0-53.426087Z" />
    <path d="M207.026087 420.730435l133.565217 0 0 53.426087-133.565217 0 0-53.426087Z" />
    <path d="M963.895652 879.304348l-33.391304 0L930.504348 327.234783c0-35.617391-26.713043-62.330435-62.330435-62.330435l-182.53913 0c-8.904348 0-15.582609 0-24.486957 2.226087L661.147826 169.182609c0-33.391304-26.713043-62.330435-62.330435-62.330435L171.408696 106.852174C138.017391 106.852174 111.304348 135.791304 111.304348 169.182609l0 710.121739L80.13913 879.304348c-8.904348 0-15.582609 6.678261-15.582609 13.356522l0 11.130435c0 6.678261 6.678261 13.356522 15.582609 13.356522l883.756522 0c8.904348 0 15.582609-6.678261 15.582609-13.356522l0-11.130435C979.478261 885.982609 972.8 879.304348 963.895652 879.304348zM663.373913 298.295652c2.226087-2.226087 15.582609-2.226087 22.26087-2.226087l182.53913 0c15.582609 0 26.713043 13.356522 26.713043 28.93913l0 552.069565L663.373913 877.078261 663.373913 304.973913C663.373913 300.521739 663.373913 298.295652 663.373913 298.295652zM144.695652 169.182609c0-15.582609 13.356522-26.713043 26.713043-26.713043L601.043478 142.469565c15.582609 0 26.713043 13.356522 26.713043 26.713043l0 135.791304 0 574.330435L144.695652 879.304348 144.695652 169.182609z" />
</svg>