<svg viewBox="0 0 1024 1024" version="1.1" xmlns="http://www.w3.org/2000/svg" p-id="17361" width="200" height="200"><path d="M512 0C230.4 0 0 230.4 0 512s230.4 512 512 512 512-230.4 512-512-230.4-512-512-512z m168.96 547.84c-20.48 5.12-40.96 0-51.2-20.48-10.24-20.48 0-35.84 20.48-46.08 5.12-5.12 15.36-10.24 20.48-10.24 35.84-20.48 61.44-46.08 46.08-87.04-15.36-35.84-56.32-56.32-92.16-46.08-40.96 0-71.68 35.84-71.68 71.68v215.04c-10.24 87.04-87.04 148.48-168.96 148.48-92.16-5.12-163.84-87.04-158.72-179.2 0-51.2 46.08-87.04 107.52-117.76 25.6-5.12 51.2-5.12 66.56 20.48s-10.24 46.08-35.84 56.32c-46.08 20.48-66.56 51.2-46.08 97.28 20.48 40.96 66.56 56.32 107.52 35.84 35.84-10.24 56.32-46.08 51.2-81.92V409.6c-5.12-71.68 40.96-133.12 107.52-153.6 66.56-20.48 138.24 0 184.32 51.2 51.2 71.68 35.84 168.96-35.84 220.16-15.36 10.24-30.72 15.36-51.2 20.48z" fill="#0FA443" p-id="17362"></path></svg>