<svg xmlns="http://www.w3.org/2000/svg" viewBox="0 0 1102 985" version="1.1">
    <path d="m437.16923,673.87077a54.35077,54.35077 0 0 0 -21.81908,4.72615a51.75138,51.75138 0 0 0 -25.67876,24.49723a41.74769,41.74769 0 0 0 -0.7877,35.13108a43.008,43.008 0 0 0 40.32985,24.576a53.79939,53.79939 0 0 0 47.41908,-29.30215a41.43261,41.43261 0 0 0 0.94523,-35.05231a43.16554,43.16554 0 0 0 -40.40862,-24.576" />
    <path d="m936.60834,649.6751c-8.15558,96.70179 -63.66341,183.9997 -155.0391,245.66582c-86.38249,58.42053 -200.39407,90.21062 -321.22969,90.21062c-256.40121,0 -460.78984,-151.79351 -460.70662,-352.60368l0.41609,-4.49389c16.97691,-157.61893 149.62979,-334.71135 310.24463,-415.9342a269.79966,269.79966 0 0 1 118.67191,-29.29349c28.29484,0 55.50783,5.24287 81.13962,15.56217c52.42867,21.13791 73.23371,56.25681 82.13826,110.93242l4.161,-0.99864c39.61278,-8.90456 59.00307,-12.15014 83.22013,-12.15013c26.63044,0 50.26496,5.40931 71.56931,16.64402l5.40931,3.16236l2.57983,1.91406c50.76428,37.69873 62.83119,81.30607 58.50375,144.71981c87.79722,40.61142 127.16035,87.96367 119.00478,186.66274l-0.08322,0zm-183.08428,-170.10194l0.58254,-5.32609c5.65897,-53.09444 0,-81.97182 -31.62364,-105.52312l1.33151,0.58254l-1.99728,-0.99864a88.21333,88.21333 0 0 0 -42.1926,-9.32065c-18.05876,0 -34.45313,2.74626 -69.65524,10.7354a582.45767,582.45767 0 0 1 -39.94567,8.07235a31.20755,31.20755 0 0 1 -35.95109,-28.29484l-0.49933,-5.40931c-4.49389,-50.01529 -14.64674,-74.48201 -46.85293,-87.38113a153.70758,153.70758 0 0 0 -57.75476,-11.06828c-29.29349,0 -59.83527,7.65625 -90.9596,22.80232c-142.05676,71.73575 -261.3112,231.01908 -275.87472,365.66924l-0.16644,1.08186c0,159.36655 173.09786,287.94164 398.37475,287.94164c108.85192,0 210.71336,-28.46128 286.27723,-79.55844c76.39608,-51.51327 121.33495,-122.08392 127.82612,-199.14576c5.99185,-71.73575 -21.47079,-99.44805 -101.86144,-133.1522a31.20755,31.20755 0 0 1 -19.0574,-31.70687zm187.24529,-167.52211a31.20755,31.20755 0 1 1 -62.4151,0c0,-47.85158 -39.36311,-86.96503 -87.71401,-86.96504a31.20755,31.20755 0 0 1 0,-62.41509c82.72081,0 150.12912,66.9922 150.12912,149.38013z" />
    <path d="m1102.2996,312.7168a31.20755,31.20755 0 1 1 -62.41509,0c0,-137.89574 -116.00886,-250.49258 -259.06425,-250.49258a31.20755,31.20755 0 0 1 0,-62.41509c177.09243,0 321.47934,140.05947 321.47934,312.90767zm-607.34048,104.94058c126.07849,0 228.60569,64.57883 252.32342,163.86043c15.06285,63.58017 -4.41066,129.8234 -53.42731,185.66411c-44.43955,50.51461 -109.01836,87.54757 -182.3353,105.10701a385.97495,385.97495 0 0 1 -89.29519,10.56896c-126.0785,0 -228.60569,-64.57883 -252.32343,-163.77721c-15.14606,-63.6634 4.41067,-129.98984 53.51055,-185.58088c44.35633,-50.59785 109.01836,-87.79724 182.25207,-105.19024a386.64071,386.64071 0 0 1 89.37842,-10.65219l-0.08322,0zm0,62.4151c-24.63316,0 -49.84886,2.99592 -74.89812,8.90456c-60.91714,14.56352 -114.26123,45.18853 -149.79622,85.71672c-36.28398,41.19396 -49.84886,87.04826 -39.61279,129.90662c16.22792,68.07406 92.04146,115.92564 191.57273,115.92564c24.7996,0 49.93208,-2.99592 74.8149,-8.90456c61.08357,-14.64674 114.34445,-45.18853 149.87944,-85.63351c36.28398,-41.27717 49.84886,-87.21469 39.61279,-129.98983c-16.22792,-68.2405 -92.04146,-116.00886 -191.57273,-116.00886l0,0.08322z" />
</svg>