<svg t="1729084723560" class="icon" viewBox="0 0 1024 1024" version="1.1" xmlns="http://www.w3.org/2000/svg" p-id="6132" width="512" height="512"><path d="M880 112H144a32 32 0 0 0-32 32v736a32 32 0 0 0 32 32h736a32 32 0 0 0 32-32V144a32 32 0 0 0-32-32zM513.088 518.08l-192 161.024a7.936 7.936 0 0 1-13.12-6.08v-62.72c0-2.304 1.152-4.608 2.944-6.08L420.672 512 310.912 419.84a7.68 7.68 0 0 1-2.88-6.144v-62.72c0-6.784 7.872-10.496 13.056-6.08l192 160.896c3.904 3.2 3.904 9.088 0 12.288z m202.88 154.88c0 4.48-3.392 8.064-7.488 8.064H523.52c-4.096 0-7.488-3.648-7.488-8v-48c0-4.48 3.392-8 7.488-8h184.96c4.096 0 7.488 3.584 7.488 8v48z" fill="#3354aa" p-id="6133"></path></svg>