<svg data-v-6805eed4="" version="1.0" xmlns="http://www.w3.org/2000/svg" xmlns:xlink="http://www.w3.org/1999/xlink" width="100%" height="100%" viewBox="0 0 340.000000 250.000000" preserveAspectRatio="xMidYMid meet" color-interpolation-filters="sRGB" style="margin: auto; background: #fff">   <g data-v-6805eed4="" fill="#f77062" class="icon-text-wrapper icon-svg-group iconsvg" transform="translate(44.661293029785156,78.08629608154297)"><g fill="#EAD1DC" class="iconsvg-imagesvg icon_container" transform="translate(0,0)" mask="url(#4ae5b295-46a9-4d48-9015-2e32ace372ea)"><rect fill="#f77062" fill-opacity="0" stroke-width="2" x="0" y="0" width="93.82740528561979" height="93.82740528561979" class="image-rect"></rect> <svg viewBox="0 0 60 60" x="0" y="0" width="93.82740528561979" height="93.82740528561979" class="image-svg-svg bn" style="overflow: visible;"><g hollow-target="iconBnFill" mask="url(#e10bdc08-622d-4d7a-acb2-897669087ee0)"><g><svg fill="#000000" xmlns:x="http://ns.adobe.com/Extensibility/1.0/" xmlns:i="http://ns.adobe.com/AdobeIllustrator/10.0/" xmlns:graph="http://ns.adobe.com/Graphs/1.0/" xmlns="http://www.w3.org/2000/svg" xmlns:xlink="http://www.w3.org/1999/xlink" version="1.1" x="0" y="0" viewBox="5 5 90 90" style="overflow: visible;" xml:space="preserve" width="60" height="60" filtersec="colorsf160030696" filter="url(#VNbzTv5WWjYEH6cIabwfQ)"><g transform="scale(1, 1) skewX(0)"><g><g i:extraneous="self"><path d="M50,5L5,50l45,45l45-45L50,5z"></path></g></g></g><defs><filter id="VNbzTv5WWjYEH6cIabwfQ"><feColorMatrix type="matrix" values="0 0 0 0 0.9140625  0 0 0 0 0.81640625  0 0 0 0 0.859375  0 0 0 1 0"></feColorMatrix></filter></defs></svg></g> <g filter="url(#colors4970101448)"><svg fill="#000000" xmlns="http://www.w3.org/2000/svg" xmlns:xlink="http://www.w3.org/1999/xlink" version="1.1" x="10.5" y="10.5" viewBox="19 17.42741584777832 61.987876892089844 65.14517974853516" style="enable-background:new 0 0 100 100;" xml:space="preserve" width="39" height="39" class="image-svg-icon"><path d="M80.1,47.7L50.8,18.3c-1.9-1.9-4.9-0.5-4.9,2.3v19.7l-21.9-22C22,16.4,19,17.9,19,20.6v58.8c0,2.8,3.1,4.2,4.9,2.3l21.9-22  v19.7c0,2.8,3.1,4.2,4.9,2.3l29.3-29.4C81.3,51.1,81.3,48.9,80.1,47.7z"></path></svg></g></g><mask id="e10bdc08-622d-4d7a-acb2-897669087ee0"><g fill="white"><svg xmlns:x="http://ns.adobe.com/Extensibility/1.0/" xmlns:i="http://ns.adobe.com/AdobeIllustrator/10.0/" xmlns:graph="http://ns.adobe.com/Graphs/1.0/" xmlns="http://www.w3.org/2000/svg" xmlns:xlink="http://www.w3.org/1999/xlink" version="1.1" x="0" y="0" viewBox="5 5 90 90" style="overflow: visible;" xml:space="preserve" width="60" height="60" filtersec="colorsf160030696"><g transform="scale(1, 1) skewX(0)"><g><g i:extraneous="self"><path d="M50,5L5,50l45,45l45-45L50,5z"></path></g></g></g><defs></defs></svg></g> <g fill="black"><svg xmlns="http://www.w3.org/2000/svg" xmlns:xlink="http://www.w3.org/1999/xlink" version="1.1" x="10.5" y="10.5" viewBox="19 17.42741584777832 61.987876892089844 65.14517974853516" style="enable-background:new 0 0 100 100;" xml:space="preserve" width="39" height="39" class="image-svg-icon"><path d="M80.1,47.7L50.8,18.3c-1.9-1.9-4.9-0.5-4.9,2.3v19.7l-21.9-22C22,16.4,19,17.9,19,20.6v58.8c0,2.8,3.1,4.2,4.9,2.3l21.9-22  v19.7c0,2.8,3.1,4.2,4.9,2.3l29.3-29.4C81.3,51.1,81.3,48.9,80.1,47.7z"></path></svg></g></mask></svg> <defs><filter id="colors4970101448"><feColorMatrix type="matrix" values="0 0 0 0 0.91015625  0 0 0 0 0.80078125  0 0 0 0 0.69921875  0 0 0 1 0" class="icon-fecolormatrix"></feColorMatrix></filter> <filter id="colorsf160030696"><feColorMatrix type="matrix" values="0 0 0 0 0.99609375  0 0 0 0 0.99609375  0 0 0 0 0.99609375  0 0 0 1 0" class="icon-fecolormatrix"></feColorMatrix></filter> <filter id="colorsb7934515104"><feColorMatrix type="matrix" values="0 0 0 0 0  0 0 0 0 0  0 0 0 0 0  0 0 0 1 0" class="icon-fecolormatrix"></feColorMatrix></filter></defs><rect v-gra="id" width="105.82740783691406" height="105.82740783691406" transform="translate(-6, -6)" style="pointer-events:none;" fill="url(#zekLhC0iX8dFpmkGezRum)"></rect></g> <g transform="translate(99.82740783691406,22.623703002929688)"><g data-gra="path-name" fill-rule="" class="tp-name iconsvg-namesvg" fill="url(#640f987c-021f-4509-8abd-056063f07421)"><g transform="scale(1)"><g><path d="M39.34 0L54.18 0 36.47-48.58 17.64-48.58-0.21 0 14.35 0 17.78-10.22 35.98-10.22ZM21.49-21.42L26.53-36.61 27.37-36.61 32.34-21.42ZM71.54 0L88.83 0 106.26-48.58 91.56-48.58 80.78-14.84 80.36-14.84 70.14-48.58 54.6-48.58ZM111.65 0L125.58 0 125.58-13.23 130.55-13.23C145.11-13.23 150.64-17.64 150.64-31.29 150.64-43.82 145.88-48.58 130.55-48.58L111.65-48.58ZM125.58-24.29L125.58-37.87 128.52-37.87C134.19-37.87 136.43-36.33 136.43-30.94 136.43-25.83 134.33-24.29 128.52-24.29Z" transform="translate(0.21000000834465027, 48.58000183105469)"></path></g> <!----> <!----> <!----> <!----> <!----> <!----> <!----></g></g> <!----></g></g><defs v-gra="od"><linearGradient x1="0" y1="1" x2="0" y2="0" id="640f987c-021f-4509-8abd-056063f07421"><stop offset="0%" stop-color="#f77062"></stop><stop offset="100%" stop-color="#fe5196"></stop></linearGradient><filter id="42443b3f1de60f6b6fd3b6a9844b4764" filterUnits="objectBoundingBox"><feColorMatrix type="matrix" values="0 0 0 0 0.99609375  0 0 0 0 0.99609375  0 0 0 0 0.99609375  0 0 0 1 0"></feColorMatrix></filter></defs><defs v-gra="id"><filter id="fcce1a34-ca61-44bb-8007-3eba205e68a9" filterUnits="userSpaceOnUse"><feColorMatrix type="matrix" values="0 0 0 0 0.99609375  0 0 0 0 0.99609375  0 0 0 0 0.99609375  0 0 0 1 0"></feColorMatrix></filter><linearGradient x1="0" y1="1" x2="0" y2="0" id="zekLhC0iX8dFpmkGezRum"><stop offset="0%" stop-color="#f77062"></stop><stop offset="100%" stop-color="#fe5196"></stop></linearGradient><filter id="42443b3f1de60f6b6fd3b6a9844b4764" filterUnits="objectBoundingBox"><feColorMatrix type="matrix" values="0 0 0 0 0.99609375  0 0 0 0 0.99609375  0 0 0 0 0.99609375  0 0 0 1 0"></feColorMatrix></filter></defs><mask v-gra="im" id="4ae5b295-46a9-4d48-9015-2e32ace372ea"><g fill="#EAD1DC" class="iconsvg-imagesvg icon_container" filter="url(#fcce1a34-ca61-44bb-8007-3eba205e68a9)"><rect fill="#f77062" fill-opacity="0" stroke-width="2" x="0" y="0" width="93.82740528561979" height="93.82740528561979" class="image-rect"></rect> <svg viewBox="0 0 60 60" x="0" y="0" width="93.82740528561979" height="93.82740528561979" class="image-svg-svg bn" style="overflow: visible;"><g hollow-target="iconBnFill" mask="url(#e10bdc08-622d-4d7a-acb2-897669087ee0)"><g><svg fill="#000000" xmlns:x="http://ns.adobe.com/Extensibility/1.0/" xmlns:i="http://ns.adobe.com/AdobeIllustrator/10.0/" xmlns:graph="http://ns.adobe.com/Graphs/1.0/" xmlns="http://www.w3.org/2000/svg" xmlns:xlink="http://www.w3.org/1999/xlink" version="1.1" x="0" y="0" viewBox="5 5 90 90" style="overflow: visible;" xml:space="preserve" width="60" height="60" filtersec="colorsf160030696"><g transform="scale(1, 1) skewX(0)"><g><g i:extraneous="self"><path d="M50,5L5,50l45,45l45-45L50,5z"></path></g></g></g><defs><filter id="VNbzTv5WWjYEH6cIabwfQ"><feColorMatrix type="matrix" values="0 0 0 0 0.9140625  0 0 0 0 0.81640625  0 0 0 0 0.859375  0 0 0 1 0"></feColorMatrix></filter></defs></svg></g> <g><svg fill="#000000" xmlns="http://www.w3.org/2000/svg" xmlns:xlink="http://www.w3.org/1999/xlink" version="1.1" x="10.5" y="10.5" viewBox="19 17.42741584777832 61.987876892089844 65.14517974853516" style="enable-background:new 0 0 100 100;" xml:space="preserve" width="39" height="39" class="image-svg-icon"><path d="M80.1,47.7L50.8,18.3c-1.9-1.9-4.9-0.5-4.9,2.3v19.7l-21.9-22C22,16.4,19,17.9,19,20.6v58.8c0,2.8,3.1,4.2,4.9,2.3l21.9-22  v19.7c0,2.8,3.1,4.2,4.9,2.3l29.3-29.4C81.3,51.1,81.3,48.9,80.1,47.7z"></path></svg></g></g><mask id="e10bdc08-622d-4d7a-acb2-897669087ee0"><g fill="white"><svg xmlns:x="http://ns.adobe.com/Extensibility/1.0/" xmlns:i="http://ns.adobe.com/AdobeIllustrator/10.0/" xmlns:graph="http://ns.adobe.com/Graphs/1.0/" xmlns="http://www.w3.org/2000/svg" xmlns:xlink="http://www.w3.org/1999/xlink" version="1.1" x="0" y="0" viewBox="5 5 90 90" style="overflow: visible;" xml:space="preserve" width="60" height="60" filtersec="colorsf160030696"><g transform="scale(1, 1) skewX(0)"><g><g i:extraneous="self"><path d="M50,5L5,50l45,45l45-45L50,5z"></path></g></g></g><defs></defs></svg></g> <g fill="black"><svg xmlns="http://www.w3.org/2000/svg" xmlns:xlink="http://www.w3.org/1999/xlink" version="1.1" x="10.5" y="10.5" viewBox="19 17.42741584777832 61.987876892089844 65.14517974853516" style="enable-background:new 0 0 100 100;" xml:space="preserve" width="39" height="39" class="image-svg-icon"><path d="M80.1,47.7L50.8,18.3c-1.9-1.9-4.9-0.5-4.9,2.3v19.7l-21.9-22C22,16.4,19,17.9,19,20.6v58.8c0,2.8,3.1,4.2,4.9,2.3l21.9-22  v19.7c0,2.8,3.1,4.2,4.9,2.3l29.3-29.4C81.3,51.1,81.3,48.9,80.1,47.7z"></path></svg></g></mask></svg> <defs><filter id="colors4970101448"><feColorMatrix type="matrix" values="0 0 0 0 0.91015625  0 0 0 0 0.80078125  0 0 0 0 0.69921875  0 0 0 1 0" class="icon-fecolormatrix"></feColorMatrix></filter> <filter id="colorsf160030696"><feColorMatrix type="matrix" values="0 0 0 0 0.99609375  0 0 0 0 0.99609375  0 0 0 0 0.99609375  0 0 0 1 0" class="icon-fecolormatrix"></feColorMatrix></filter> <filter id="colorsb7934515104"><feColorMatrix type="matrix" values="0 0 0 0 0  0 0 0 0 0  0 0 0 0 0  0 0 0 1 0" class="icon-fecolormatrix"></feColorMatrix></filter></defs></g></mask></svg>